<?xml version="1.0" encoding="utf-8"?>
<!-- Generator: Adobe Illustrator 24.0.3, SVG Export Plug-In . SVG Version: 6.00 Build 0)  -->
<svg version="1.1" id="Layer_1" xmlns="http://www.w3.org/2000/svg" xmlns:xlink="http://www.w3.org/1999/xlink" x="0px" y="0px"
	 viewBox="0 0 1050.8 573" style="enable-background:new 0 0 1050.8 573;" xml:space="preserve">
<style type="text/css">
	.st0{font-family:'Montserrat-Regular';}
	.st1{font-size:117px;}
	.st2{letter-spacing:1;}
	.st3{letter-spacing:2;}
	.st4{letter-spacing:4;}
	.st5{opacity:0.9;fill:#FBB0D6;enable-background:new    ;}
	.st6{opacity:0.9;fill:#FFB0B6;enable-background:new    ;}
	.st7{opacity:0.9;fill:#FBB093;enable-background:new    ;}
	.st8{opacity:0.9;fill:#FBB079;enable-background:new    ;}
</style>
<title>logo</title>
<text transform="matrix(1 0 0 1 46.78 544.53)" class="st0 st1 st2">f</text>
<text transform="matrix(1 0 0 1 87.85 544.53)" class="st0 st1 st3">ou</text>
<text transform="matrix(1 0 0 1 244.86 544.53)" class="st0 st1 st4">r</text>
<text transform="matrix(1 0 0 1 295.99 544.53)" class="st0 st1 st3">th t</text>
<text transform="matrix(1 0 0 1 510.68 544.53)" class="st0 st1 st2">r</text>
<text transform="matrix(1 0 0 1 559.11 544.53)" class="st0 st1 st3">i</text>
<text transform="matrix(1 0 0 1 593.04 544.53)" class="st0 st1 st3">m</text>
<text transform="matrix(1 0 0 1 719.87 544.53)" class="st0 st1 st3">es</text>
<text transform="matrix(1 0 0 1 852.66 544.53)" class="st0 st1">t</text>
<text transform="matrix(1 0 0 1 900.4 544.53)" class="st0 st1 st3">er</text>
<circle class="st5" cx="200" cy="236.1" r="200"/>
<circle class="st6" cx="416.4" cy="234.5" r="200"/>
<circle class="st7" cx="634.4" cy="231.2" r="200"/>
<circle class="st8" cx="850.8" cy="234.5" r="200"/>
</svg>
